<?xml version="1.0" encoding="UTF-8" standalone="no"?>
<!-- Created with Inkscape (http://www.inkscape.org/) -->
<svg height="16" viewBox="0 0 16 16" width="16" xmlns="http://www.w3.org/2000/svg" xmlns:inkscape="http://www.inkscape.org/namespaces/inkscape" xmlns:sodipodi="http://sodipodi.sourceforge.net/DTD/sodipodi-0.dtd" xmlns:svg="http://www.w3.org/2000/svg" inkscape:version="1.4.2 (ebf0e940d0, 2025-05-08)" sodipodi:docname="com.v81d.Ampere-symbolic.svg">
    <sodipodi:namedview pagecolor="#ffffff" bordercolor="#000000" borderopacity="0.25" inkscape:showpageshadow="2" inkscape:pageopacity="0.0" inkscape:pagecheckerboard="0" inkscape:deskcolor="#d1d1d1" inkscape:document-units="px" inkscape:zoom="12.526852" inkscape:cx="5.8274818" inkscape:cy="11.096164" inkscape:window-width="1078" inkscape:window-height="981" inkscape:window-x="0" inkscape:window-y="0" inkscape:window-maximized="0" inkscape:current-layer="layer1"/>
    <g inkscape:label="Layer 1" inkscape:groupmode="layer">
        <g enable-background="new" stroke-linecap="round" stroke-linejoin="round" transform="matrix(1.0877648 0 0 0.91931638 -160.00014 -172)" inkscape:label="battery-ampere-label">
            <path d="m 152.88232 197.10298 l 1.25026 -4.78617 h 0.62513 l 1.25027 4.78617 h -0.56002 l -0.29954 -1.2177 h -1.40655 l -0.29954 1.2177 z m 2.14889 -1.69307 l -0.37117 -1.49771 q -0.0521 -0.2214 -0.1107 -0.4428 q -0.0521 -0.22792 -0.10419 -0.45583 q -0.0521 0.22791 -0.1107 0.45583 q -0.0521 0.2214 -0.10419 0.4428 l -0.37117 1.49771 z" inkscape:label="path2" vector-effect="none"/>
            <path d="m 154.13281 192.26758 a 0.0500046 0.0500046 0 0 0 -0.0488 0.0371 l -1.25 4.78515 a 0.0500046 0.0500046 0 0 0 0.0488 0.0625 h 0.5586 a 0.0500046 0.0500046 0 0 0 0.0488 -0.0371 l 0.29102 -1.17968 h 1.32812 l 0.28907 1.17968 a 0.0500046 0.0500046 0 0 0 0.0488 0.0371 h 0.56054 a 0.0500046 0.0500046 0 0 0 0.0488 -0.0625 l -1.25 -4.78515 a 0.0500046 0.0500046 0 0 0 -0.0488 -0.0371 z m 0.0391 0.0996 h 0.54688 l 1.22461 4.68554 h -0.45703 l -0.28906 -1.17968 a 0.0500046 0.0500046 0 0 0 -0.0488 -0.0371 h -1.40625 a 0.0500046 0.0500046 0 0 0 -0.0488 0.0371 l -0.29102 1.17968 h -0.45507 z m 0.22461 0.63476 c -0.0346 0.1515 -0.0724 0.30357 -0.11132 0.45508 c -0.0347 0.1476 -0.0688 0.29576 -0.10352 0.44336 l -0.37109 1.49805 a 0.0500046 0.0500046 0 0 0 0.0488 0.0605 h 1.17188 a 0.0500046 0.0500046 0 0 0 0.0488 -0.0605 l -0.3711 -1.49805 c -0.0347 -0.14744 -0.0723 -0.29398 -0.11132 -0.44141 v -0.002 c -0.0346 -0.15133 -0.0689 -0.30376 -0.10352 -0.45508 a 0.0500046 0.0500046 0 0 0 -0.0977 0 z m 0.0469 0.23047 c 0.0189 0.0828 0.0377 0.16521 0.0566 0.24805 a 0.0500046 0.0500046 0 0 0 0.002 0.002 c 0.0389 0.14716 0.0747 0.29426 0.10938 0.44141 l 0.35547 1.43554 h -1.04297 l 0.35547 -1.43554 c 0.0346 -0.14698 0.0689 -0.29443 0.10351 -0.44141 v -0.002 c 0.0213 -0.0827 0.0406 -0.16534 0.0606 -0.24805 z" inkscape:label="path1" vector-effect="none"/>
        </g>
        <g enable-background="new" inkscape:label="battery">
            <path d="m 6.48242 0 a 1.0001 1.0001 0 0 0 -1 1 v 1 h -2.48242 a 1.0001 1.0001 0 0 0 -1 1 v 12 a 1.0001 1.0001 0 0 0 1 1 h 10 a 1.0001 1.0001 0 0 0 1 -1 v -12 a 1.0001 1.0001 0 0 0 -1 -1 h -2.48242 v -1 a 1.0001 1.0001 0 0 0 -1 -1 z m -2.48242 4 h 8 v 10 h -8 z" stroke-linecap="round" stroke-linejoin="round" inkscape:label="battery-outline" vector-effect="none"/>
            <path d="m 4.5 10 v 1.5 h 7 v -1.5 z m 0 2 v 1.5 h 7 v -1.5 z" inkscape:label="battery-bars"/>
        </g>
    </g>
</svg>
