<?xml version="1.0" encoding="UTF-8" standalone="no"?>
<!-- Created with Inkscape (http://www.inkscape.org/) -->
<svg height="16" viewBox="0 0 16 16" width="16" xmlns="http://www.w3.org/2000/svg" xmlns:inkscape="http://www.inkscape.org/namespaces/inkscape" xmlns:sodipodi="http://sodipodi.sourceforge.net/DTD/sodipodi-0.dtd" xmlns:svg="http://www.w3.org/2000/svg" inkscape:version="1.4.2 (ebf0e940d0, 2025-05-08)" sodipodi:docname="io.github.v81d.Wattage-symbolic.svg">
    <sodipodi:namedview pagecolor="#ffffff" bordercolor="#000000" borderopacity="0.25" inkscape:showpageshadow="2" inkscape:pageopacity="0.0" inkscape:pagecheckerboard="0" inkscape:deskcolor="#d1d1d1" inkscape:document-units="px" inkscape:zoom="9.7608012" inkscape:cx="6.4543882" inkscape:cy="6.5568388" inkscape:window-width="1078" inkscape:window-height="981" inkscape:window-x="0" inkscape:window-y="0" inkscape:window-maximized="0" inkscape:current-layer="layer1" showguides="true"/>
    <g stroke-width="2" inkscape:label="io.github.v81d.Wattage-symbolic" inkscape:groupmode="layer">
        <path d="m 3 1 h 10 c 1.108 0 2 0.892 2 2 v 10 c 0 1.108 -0.892 2 -2 2 h -10 c -1.108 0 -2 -0.892 -2 -2 v -10 c 0 -1.108 0.892 -2 2 -2 z" fill="none" stroke="#000000" stroke-linecap="square" inkscape:label="device-outline"/>
        <path d="m 10 8 c -1.108 0 -2 0.892 -2 2 v 6 h 6 c 1.108 0 2 -0.892 2 -2 v -6 z m 1 2.015625 a 1 1 0 0 1 1 1 a 1 1 0 0 1 -1 1 a 1 1 0 0 1 -1 -1 a 1 1 0 0 1 1 -1 z" stroke-linecap="square" inkscape:label="control-overlay"/>
        <path d="m -4 -11.5 h -1 m -0.075915 3.7015367 l -0.8488263 -0.5154932 m -1.8737258 3.2380436 l -0.5154926 -0.8488266 m -3.1860428 1.9247427 v -1.0000004" fill="none" stroke="#000000" stroke-linecap="round" transform="matrix(-1 0 0 -1 0 0)" inkscape:label="ticks"/>
    </g>
</svg>
