<?xml version="1.0" encoding="UTF-8"?>
<svg height="128px" viewBox="0 0 128 128" width="128px" xmlns="http://www.w3.org/2000/svg" xmlns:xlink="http://www.w3.org/1999/xlink">
    <filter id="a" height="100%" width="100%" x="0%" y="0%">
        <feColorMatrix color-interpolation-filters="sRGB" values="0 0 0 0 1 0 0 0 0 1 0 0 0 0 1 0 0 0 1 0"/>
    </filter>
    <linearGradient id="b" gradientUnits="userSpaceOnUse" x1="11.999998" x2="115.999998" y1="64" y2="64">
        <stop offset="0" stop-color="#e66100"/>
        <stop offset="0.04" stop-color="#ffa348"/>
        <stop offset="0.08" stop-color="#e66100"/>
        <stop offset="0.92" stop-color="#e66100"/>
        <stop offset="0.96" stop-color="#ffa348"/>
        <stop offset="1" stop-color="#e66100"/>
    </linearGradient>
    <linearGradient id="c" gradientUnits="userSpaceOnUse" x1="25.197058" x2="102.802938" y1="32.927292" y2="65.072708">
        <stop offset="0" stop-color="#deddda"/>
        <stop offset="1" stop-color="#c0bfbc"/>
    </linearGradient>
    <linearGradient id="d" gradientUnits="userSpaceOnUse" x1="50.363618" x2="77.636338" y1="88.363529" y2="88.363529">
        <stop offset="0" stop-color="#c01c28"/>
        <stop offset="0.0836118" stop-color="#ed333b"/>
        <stop offset="0.16012" stop-color="#c01c28"/>
        <stop offset="0.837977" stop-color="#a51d2d"/>
        <stop offset="0.923839" stop-color="#ed333b"/>
        <stop offset="1" stop-color="#a51d2d"/>
    </linearGradient>
    <clipPath id="e">
        <rect height="128" width="128"/>
    </clipPath>
    <clipPath id="f">
        <rect height="128" width="128"/>
    </clipPath>
    <mask id="g">
        <g filter="url(#a)">
            <g clip-path="url(#f)" filter="url(#a)">
                <g clip-path="url(#e)">
                    <path d="m 24 12 h 80 c 6.648438 0 12 5.351562 12 12 v 80 c 0 6.648438 -5.351562 12 -12 12 h -80 c -6.648438 0 -12 -5.351562 -12 -12 v -80 c 0 -6.648438 5.351562 -12 12 -12 z m 0 0" fill="url(#b)"/>
                    <path d="m 23.519531 12 h 80.960938 c 6.382812 0 11.519531 5.136719 11.519531 11.519531 v 72.960938 c 0 6.382812 -5.136719 11.519531 -11.519531 11.519531 h -80.960938 c -6.382812 0 -11.519531 -5.136719 -11.519531 -11.519531 v -72.960938 c 0 -6.382812 5.136719 -11.519531 11.519531 -11.519531 z m 0 0" fill="#ff7800"/>
                    <path d="m 28 98 c 0 2.210938 -1.789062 4 -4 4 s -4 -1.789062 -4 -4 s 1.789062 -4 4 -4 s 4 1.789062 4 4 z m 0 0"/>
                    <path d="m 108 98 c 0 2.210938 -1.789062 4 -4 4 s -4 -1.789062 -4 -4 s 1.789062 -4 4 -4 s 4 1.789062 4 4 z m 0 0" fill="#a51d2d"/>
                    <path d="m 24 20 h 80 c 2.214844 0 4 1.785156 4 4 v 48 c 0 2.214844 -1.785156 4 -4 4 h -80 c -2.214844 0 -4 -1.785156 -4 -4 v -48 c 0 -2.214844 1.785156 -4 4 -4 z m 0 0"/>
                    <path d="m 24 22 h 80 c 1.109375 0 2 0.890625 2 2 v 48 c 0 1.109375 -0.890625 2 -2 2 h -80 c -1.109375 0 -2 -0.890625 -2 -2 v -48 c 0 -1.109375 0.890625 -2 2 -2 z m 0 0" fill="#9a9996"/>
                    <path d="m 23.921875 24 h 80.15625 c 1.0625 0 1.921875 0.859375 1.921875 1.921875 v 46.15625 c 0 1.0625 -0.859375 1.921875 -1.921875 1.921875 h -80.15625 c -1.0625 0 -1.921875 -0.859375 -1.921875 -1.921875 v -46.15625 c 0 -1.0625 0.859375 -1.921875 1.921875 -1.921875 z m 0 0" fill="url(#c)"/>
                    <path d="m 61.121094 55.128906 l 2.304687 -8.820312 h 1.148438 l 2.304687 8.820312 h -1.03125 l -0.550781 -2.242187 h -2.59375 l -0.550781 2.242187 z m 3.957031 -3.117187 l -0.683594 -2.761719 c -0.0625 -0.273438 -0.128906 -0.542969 -0.203125 -0.816406 c -0.0625 -0.28125 -0.128906 -0.558594 -0.191406 -0.839844 c -0.0625 0.28125 -0.132812 0.558594 -0.203125 0.839844 c -0.066406 0.273437 -0.128906 0.542968 -0.191406 0.816406 l -0.683594 2.761719 z m 0 0" fill="#77767b"/>
                    <path d="m 30.195312 50.945312 l -1.113281 -1.007812 c 7.296875 -8.023438 20.574219 -12.84375 34.917969 -12.84375 s 27.621094 4.820312 34.914062 12.84375 l -1.109374 1.007812 c -6.882813 -7.570312 -19.800782 -12.351562 -33.804688 -12.351562 s -26.921875 4.78125 -33.804688 12.351562 z m 0 0"/>
                    <path d="m 64 29.84375 c -0.191406 -0.003906 -0.382812 0 -0.582031 0 l 0.039062 4 h 0.539063 h 0.003906 h 0.550781 l 0.023438 -4 c -0.1875 0 -0.378907 0 -0.570313 0 z m -7.535156 0.40625 c -0.386719 0.042969 -0.773438 0.089844 -1.160156 0.140625 l 0.515624 3.964844 c 0.363282 -0.042969 0.722657 -0.089844 1.085938 -0.128907 z m 15.070312 0 l -0.441406 3.976562 c 0.363281 0.039063 0.722656 0.085938 1.085938 0.128907 l 0.511718 -3.964844 c -0.382812 -0.050781 -0.769531 -0.097656 -1.15625 -0.140625 z m -23.128906 1.421875 c -0.378906 0.09375 -0.757812 0.1875 -1.136719 0.289063 l 1.023438 3.867187 c 0.355469 -0.09375 0.710937 -0.183594 1.0625 -0.273437 z m 31.183594 0 l -0.949219 3.882813 c 0.355469 0.089843 0.710937 0.179687 1.0625 0.273437 l 1.027344 -3.867187 c -0.378907 -0.101563 -0.757813 -0.195313 -1.140625 -0.289063 z m -39.042969 2.496094 c -0.367187 0.148437 -0.738281 0.300781 -1.109375 0.457031 l 1.5625 3.679688 c 0.339844 -0.140626 0.679688 -0.28125 1.019531 -0.417969 z m 46.902344 0 l -1.46875 3.71875 c 0.339843 0.136719 0.679687 0.277343 1.019531 0.417969 l 1.5625 -3.679688 c -0.371094 -0.15625 -0.742188 -0.308594 -1.113281 -0.457031 z m -54.496094 3.832031 c -0.347656 0.21875 -0.691406 0.441406 -1.035156 0.675781 l 2.230469 3.316407 c 0.3125 -0.207032 0.625 -0.410157 0.9375 -0.609376 z m 62.089844 0 l -2.132813 3.382812 c 0.316406 0.199219 0.628906 0.402344 0.9375 0.609376 l 2.234375 -3.316407 c -0.34375 -0.234375 -0.6875 -0.457031 -1.039062 -0.675781 z m -68.945313 5.46875 c -0.300781 0.300781 -0.59375 0.609375 -0.886718 0.925781 l 2.9375 2.710938 c 0.257812 -0.277344 0.523437 -0.554688 0.789062 -0.824219 z m 75.804688 0 l -2.839844 2.8125 c 0.265625 0.269531 0.53125 0.546875 0.789062 0.824219 l 2.9375 -2.710938 c -0.292968 -0.316406 -0.585937 -0.625 -0.886718 -0.925781 z m 0 0"/>
                    <path d="m 47.78125 33.894531 c 0.925781 -0.535156 2.105469 -0.21875 2.640625 0.707031 l 16.257813 28.160157 c 0.535156 0.925781 0.21875 2.101562 -0.707032 2.636719 c -0.929687 0.535156 -2.105468 0.222656 -2.640625 -0.707032 l -16.257812 -28.15625 c -0.535157 -0.929687 -0.21875 -2.105468 0.707031 -2.640625 z m 0 0" fill="#ed333b"/>
                    <path d="m 89 85 c 0 -8.933594 -4.765625 -17.183594 -12.5 -21.652344 c -7.734375 -4.464844 -17.265625 -4.464844 -25 0 c -7.734375 4.46875 -12.5 12.722656 -12.5 21.652344 z m 0 0" fill="#ff7800"/>
                    <path d="m 77.636719 88.363281 c 0 7.53125 -6.105469 13.636719 -13.636719 13.636719 s -13.636719 -6.105469 -13.636719 -13.636719 s 6.105469 -13.636719 13.636719 -13.636719 s 13.636719 6.105469 13.636719 13.636719 z m 0 0" fill="url(#d)"/>
                    <path d="m 77.636719 85.636719 c 0 7.53125 -6.105469 13.636719 -13.636719 13.636719 s -13.636719 -6.105469 -13.636719 -13.636719 s 6.105469 -13.636719 13.636719 -13.636719 s 13.636719 6.105469 13.636719 13.636719 z m 0 0" fill="#e01b24"/>
                </g>
            </g>
        </g>
    </mask>
    <mask id="h">
        <g filter="url(#a)">
            <rect fill-opacity="0.8" height="184.32" width="184.32" x="-28.16" y="-28.16"/>
        </g>
    </mask>
    <linearGradient id="i" gradientTransform="matrix(0 0.37 -0.98462 0 295.38501 -30.360001)" gradientUnits="userSpaceOnUse" x1="300" x2="428" y1="235" y2="235">
        <stop offset="0" stop-color="#f9f06b"/>
        <stop offset="1" stop-color="#f5c211"/>
    </linearGradient>
    <clipPath id="j">
        <rect height="128" width="128"/>
    </clipPath>
    <clipPath id="k">
        <rect height="128" width="128"/>
    </clipPath>
    <path d="m 24 12 h 80 c 6.648438 0 12 5.351562 12 12 v 80 c 0 6.648438 -5.351562 12 -12 12 h -80 c -6.648438 0 -12 -5.351562 -12 -12 v -80 c 0 -6.648438 5.351562 -12 12 -12 z m 0 0" fill="url(#b)"/>
    <path d="m 23.519531 12 h 80.960938 c 6.382812 0 11.519531 5.136719 11.519531 11.519531 v 72.960938 c 0 6.382812 -5.136719 11.519531 -11.519531 11.519531 h -80.960938 c -6.382812 0 -11.519531 -5.136719 -11.519531 -11.519531 v -72.960938 c 0 -6.382812 5.136719 -11.519531 11.519531 -11.519531 z m 0 0" fill="#ff7800"/>
    <path d="m 28 98 c 0 2.210938 -1.789062 4 -4 4 s -4 -1.789062 -4 -4 s 1.789062 -4 4 -4 s 4 1.789062 4 4 z m 0 0"/>
    <path d="m 108 98 c 0 2.210938 -1.789062 4 -4 4 s -4 -1.789062 -4 -4 s 1.789062 -4 4 -4 s 4 1.789062 4 4 z m 0 0" fill="#a51d2d"/>
    <path d="m 24 20 h 80 c 2.214844 0 4 1.785156 4 4 v 48 c 0 2.214844 -1.785156 4 -4 4 h -80 c -2.214844 0 -4 -1.785156 -4 -4 v -48 c 0 -2.214844 1.785156 -4 4 -4 z m 0 0"/>
    <path d="m 24 22 h 80 c 1.109375 0 2 0.890625 2 2 v 48 c 0 1.109375 -0.890625 2 -2 2 h -80 c -1.109375 0 -2 -0.890625 -2 -2 v -48 c 0 -1.109375 0.890625 -2 2 -2 z m 0 0" fill="#9a9996"/>
    <path d="m 23.921875 24 h 80.15625 c 1.0625 0 1.921875 0.859375 1.921875 1.921875 v 46.15625 c 0 1.0625 -0.859375 1.921875 -1.921875 1.921875 h -80.15625 c -1.0625 0 -1.921875 -0.859375 -1.921875 -1.921875 v -46.15625 c 0 -1.0625 0.859375 -1.921875 1.921875 -1.921875 z m 0 0" fill="url(#c)"/>
    <path d="m 61.121094 55.128906 l 2.304687 -8.820312 h 1.148438 l 2.304687 8.820312 h -1.03125 l -0.550781 -2.242187 h -2.59375 l -0.550781 2.242187 z m 3.957031 -3.117187 l -0.683594 -2.761719 c -0.0625 -0.273438 -0.128906 -0.542969 -0.203125 -0.816406 c -0.0625 -0.28125 -0.128906 -0.558594 -0.191406 -0.839844 c -0.0625 0.28125 -0.132812 0.558594 -0.203125 0.839844 c -0.066406 0.273437 -0.128906 0.542968 -0.191406 0.816406 l -0.683594 2.761719 z m 0 0" fill="#77767b"/>
    <path d="m 30.195312 50.945312 l -1.113281 -1.007812 c 7.296875 -8.023438 20.574219 -12.84375 34.917969 -12.84375 s 27.621094 4.820312 34.914062 12.84375 l -1.109374 1.007812 c -6.882813 -7.570312 -19.800782 -12.351562 -33.804688 -12.351562 s -26.921875 4.78125 -33.804688 12.351562 z m 0 0"/>
    <path d="m 64 29.84375 c -0.191406 -0.003906 -0.382812 0 -0.582031 0 l 0.039062 4 h 0.539063 h 0.003906 h 0.550781 l 0.023438 -4 c -0.1875 0 -0.378907 0 -0.570313 0 z m -7.535156 0.40625 c -0.386719 0.042969 -0.773438 0.089844 -1.160156 0.140625 l 0.515624 3.964844 c 0.363282 -0.042969 0.722657 -0.089844 1.085938 -0.128907 z m 15.070312 0 l -0.441406 3.976562 c 0.363281 0.039063 0.722656 0.085938 1.085938 0.128907 l 0.511718 -3.964844 c -0.382812 -0.050781 -0.769531 -0.097656 -1.15625 -0.140625 z m -23.128906 1.421875 c -0.378906 0.09375 -0.757812 0.1875 -1.136719 0.289063 l 1.023438 3.867187 c 0.355469 -0.09375 0.710937 -0.183594 1.0625 -0.273437 z m 31.183594 0 l -0.949219 3.882813 c 0.355469 0.089843 0.710937 0.179687 1.0625 0.273437 l 1.027344 -3.867187 c -0.378907 -0.101563 -0.757813 -0.195313 -1.140625 -0.289063 z m -39.042969 2.496094 c -0.367187 0.148437 -0.738281 0.300781 -1.109375 0.457031 l 1.5625 3.679688 c 0.339844 -0.140626 0.679688 -0.28125 1.019531 -0.417969 z m 46.902344 0 l -1.46875 3.71875 c 0.339843 0.136719 0.679687 0.277343 1.019531 0.417969 l 1.5625 -3.679688 c -0.371094 -0.15625 -0.742188 -0.308594 -1.113281 -0.457031 z m -54.496094 3.832031 c -0.347656 0.21875 -0.691406 0.441406 -1.035156 0.675781 l 2.230469 3.316407 c 0.3125 -0.207032 0.625 -0.410157 0.9375 -0.609376 z m 62.089844 0 l -2.132813 3.382812 c 0.316406 0.199219 0.628906 0.402344 0.9375 0.609376 l 2.234375 -3.316407 c -0.34375 -0.234375 -0.6875 -0.457031 -1.039062 -0.675781 z m -68.945313 5.46875 c -0.300781 0.300781 -0.59375 0.609375 -0.886718 0.925781 l 2.9375 2.710938 c 0.257812 -0.277344 0.523437 -0.554688 0.789062 -0.824219 z m 75.804688 0 l -2.839844 2.8125 c 0.265625 0.269531 0.53125 0.546875 0.789062 0.824219 l 2.9375 -2.710938 c -0.292968 -0.316406 -0.585937 -0.625 -0.886718 -0.925781 z m 0 0"/>
    <path d="m 47.78125 33.894531 c 0.925781 -0.535156 2.105469 -0.21875 2.640625 0.707031 l 16.257813 28.160157 c 0.535156 0.925781 0.21875 2.101562 -0.707032 2.636719 c -0.929687 0.535156 -2.105468 0.222656 -2.640625 -0.707032 l -16.257812 -28.15625 c -0.535157 -0.929687 -0.21875 -2.105468 0.707031 -2.640625 z m 0 0" fill="#ed333b"/>
    <path d="m 89 85 c 0 -8.933594 -4.765625 -17.183594 -12.5 -21.652344 c -7.734375 -4.464844 -17.265625 -4.464844 -25 0 c -7.734375 4.46875 -12.5 12.722656 -12.5 21.652344 z m 0 0" fill="#ff7800"/>
    <path d="m 77.636719 88.363281 c 0 7.53125 -6.105469 13.636719 -13.636719 13.636719 s -13.636719 -6.105469 -13.636719 -13.636719 s 6.105469 -13.636719 13.636719 -13.636719 s 13.636719 6.105469 13.636719 13.636719 z m 0 0" fill="url(#d)"/>
    <path d="m 77.636719 85.636719 c 0 7.53125 -6.105469 13.636719 -13.636719 13.636719 s -13.636719 -6.105469 -13.636719 -13.636719 s 6.105469 -13.636719 13.636719 -13.636719 s 13.636719 6.105469 13.636719 13.636719 z m 0 0" fill="#e01b24"/>
    <g mask="url(#g)">
        <g clip-path="url(#k)">
            <g mask="url(#h)">
                <g clip-path="url(#j)">
                    <path d="m 128 80.640625 v 47.359375 h -128 v -47.359375 z m 0 0" fill="url(#i)"/>
                    <path d="m 13.308594 80.640625 l 47.355468 47.359375 h 21.214844 l -47.359375 -47.359375 z m 42.421875 0 l 47.363281 47.359375 h 21.214844 l -47.363282 -47.359375 z m 42.429687 0 l 29.839844 29.839844 v -21.210938 l -8.628906 -8.628906 z m -98.160156 7.90625 v 21.214844 l 18.238281 18.238281 h 21.214844 z m 0 0"/>
                </g>
            </g>
        </g>
    </g>
</svg>
