<?xml version="1.0" encoding="UTF-8"?>
<svg height="128px" viewBox="0 0 128 128" width="128px" xmlns="http://www.w3.org/2000/svg" xmlns:xlink="http://www.w3.org/1999/xlink">
    <linearGradient id="a" gradientUnits="userSpaceOnUse" x1="12" x2="116" y1="64" y2="64">
        <stop offset="0" stop-color="#241f31"/>
        <stop offset="0.0356988" stop-color="#5e5c64"/>
        <stop offset="0.0751953" stop-color="#241f31"/>
        <stop offset="0.924998" stop-color="#241f31"/>
        <stop offset="0.963059" stop-color="#5e5c64"/>
        <stop offset="1" stop-color="#241f31"/>
    </linearGradient>
    <linearGradient id="b" gradientUnits="userSpaceOnUse" x1="88.834055" x2="98.834055" y1="85.999994" y2="85.999994">
        <stop offset="0" stop-color="#241f31"/>
        <stop offset="0.0756414" stop-color="#5e5c64"/>
        <stop offset="0.157612" stop-color="#241f31"/>
        <stop offset="0.83572" stop-color="#241f31"/>
        <stop offset="0.918897" stop-color="#5e5c64"/>
        <stop offset="1" stop-color="#241f31"/>
    </linearGradient>
    <path d="m 20 12 h 88 c 4.433594 0 8 3.566406 8 8 v 88 c 0 4.433594 -3.566406 8 -8 8 h -88 c -4.433594 0 -8 -3.566406 -8 -8 v -88 c 0 -4.433594 3.566406 -8 8 -8 z m 0 0" fill="url(#a)"/>
    <path d="m 20 12 h 88 c 4.433594 0 8 3.292969 8 7.382812 v 81.234376 c 0 4.089843 -3.566406 7.382812 -8 7.382812 h -88 c -4.433594 0 -8 -3.292969 -8 -7.382812 v -81.234376 c 0 -4.089843 3.566406 -7.382812 8 -7.382812 z m 0 0" fill="#3d3846"/>
    <path d="m 23.667969 16 h 80.664062 c 4.0625 0 7.335938 3.019531 7.335938 6.769531 v 74.460938 c 0 3.75 -3.273438 6.769531 -7.335938 6.769531 h -80.664062 c -4.0625 0 -7.335938 -3.019531 -7.335938 -6.769531 v -74.460938 c 0 -3.75 3.273438 -6.769531 7.335938 -6.769531 z m 0 0" fill="#f6f5f4"/>
    <path d="m 27.167969 19.382812 h 73.664062 c 3.972657 0 7.167969 2.953126 7.167969 6.617188 v 68 c 0 3.664062 -3.195312 6.617188 -7.167969 6.617188 h -73.664062 c -3.972657 0 -7.167969 -2.953126 -7.167969 -6.617188 v -68 c 0 -3.664062 3.195312 -6.617188 7.167969 -6.617188 z m 0 0" fill="#deddda"/>
    <path d="m 36.160156 74.417969 l 0.027344 -0.109375 c 0.289062 -1.070313 1.378906 -1.699219 2.449219 -1.414063 l 55.746093 14.9375 c 1.070313 0.285157 1.703126 1.378907 1.414063 2.449219 l -0.027344 0.109375 c -0.289062 1.070313 -1.378906 1.703125 -2.449219 1.414063 l -55.746093 -14.9375 c -1.070313 -0.285157 -1.703125 -1.378907 -1.414063 -2.449219 z m 0 0"/>
    <path d="m 36.160156 73.390625 l 0.027344 -0.109375 c 0.289062 -1.070312 1.378906 -1.703125 2.449219 -1.414062 l 55.746093 14.9375 c 1.070313 0.285156 1.703126 1.378906 1.414063 2.449218 l -0.027344 0.109375 c -0.289062 1.070313 -1.378906 1.703125 -2.449219 1.414063 l -55.746093 -14.9375 c -1.070313 -0.285156 -1.703125 -1.378906 -1.414063 -2.449219 z m 0 0" fill="#3d3846"/>
    <path d="m 82.882812 68 h 28.953126 h -0.164063 v 29.335938 c 0 3.691406 -3.144531 6.664062 -7.046875 6.664062 h -28.789062 v -29.335938 c 0 -3.691406 3.140624 -6.664062 7.046874 -6.664062 z m 0 0" fill="#f6f5f4"/>
    <path d="m 98.835938 86 c 0 2.761719 -2.242188 5 -5 5 c -2.761719 0 -5 -2.238281 -5 -5 s 2.238281 -5 5 -5 c 2.757812 0 5 2.238281 5 5 z m 0 0" fill="url(#b)"/>
    <path d="m 98.835938 85 c 0 2.761719 -2.242188 5 -5 5 c -2.761719 0 -5 -2.238281 -5 -5 s 2.238281 -5 5 -5 c 2.757812 0 5 2.238281 5 5 z m 0 0" fill="#3d3846"/>
    <path d="m 96.382812 83.527344 c 0.152344 0.261718 -0.039062 0.648437 -0.425781 0.871094 l -3.703125 2.140624 c -0.386718 0.222657 -0.820312 0.191407 -0.96875 -0.066406 c -0.152344 -0.261718 0.039063 -0.648437 0.425782 -0.871094 l 3.703124 -2.140624 c 0.386719 -0.222657 0.820313 -0.191407 0.96875 0.066406 z m 0 0" fill="#241f31"/>
    <path d="m -29.049026 -264.167468 c 0 0.399223 -0.004116 0.798446 -0.012347 1.193554 m -18.734679 42.334117 c -0.279867 0.283983 -0.559735 0.563851 -0.843719 0.843719 m -42.334117 18.734678 c -0.395108 0.008232 -0.794331 0.012347 -1.193554 0.012347" fill="none" stroke="#3d3846" stroke-width="8" transform="matrix(-0.949109 0 0 -0.949109 8.374623 -158.872132)"/>
    <path d="m -29.049026 -264.167468 c 0 0.333372 -0.004116 0.666744 -0.008232 1.000116 m -0.432148 5.955421 c -0.041157 0.329256 -0.08643 0.658513 -0.135819 0.983653 m -1.152396 5.827835 c -0.078199 0.316909 -0.164628 0.637934 -0.246942 0.954843 m -1.823257 5.65086 c -0.119355 0.308678 -0.23871 0.61324 -0.358066 0.921917 m -2.444727 5.420381 c -0.152281 0.292215 -0.304562 0.588545 -0.456843 0.88076 m -3.020926 5.140513 c -0.181091 0.279867 -0.362182 0.555619 -0.547388 0.831372 m -3.539505 4.819487 c -0.2099 0.255174 -0.419801 0.514463 -0.633818 0.769637 m -4.01281 4.440843 c -0.234595 0.238711 -0.46919 0.473306 -0.707901 0.707901 m -4.440843 4.01281 c -0.255173 0.214016 -0.514463 0.423917 -0.773752 0.633818 m -4.815372 3.539504 c -0.275752 0.185207 -0.551504 0.366298 -0.831372 0.547389 m -5.140513 3.020925 c -0.292215 0.152281 -0.588545 0.304562 -0.88076 0.456843 m -5.42038 2.444728 c -0.308678 0.119355 -0.61324 0.238711 -0.926033 0.358066 m -5.646744 1.823256 c -0.31691 0.082314 -0.637934 0.168744 -0.954843 0.246942 m -5.827835 1.152397 c -0.325141 0.049389 -0.654397 0.094661 -0.983653 0.135818 m -5.955422 0.432149 c -0.333372 0.004116 -0.666744 0.008231 -1.000116 0.008231" fill="none" stroke="#3d3846" stroke-width="4" transform="matrix(-0.949109 0 0 -0.949109 8.374623 -158.872132)"/>
    <path d="m 32.4375 44.917969 l -2.4375 -14.917969 h 1.90625 l 1.472656 11.671875 l 1.789063 -11.671875 h 1.785156 l 1.789063 11.671875 l 1.472656 -11.671875 h 1.90625 l -2.4375 14.917969 h -1.8125 l -1.808594 -11.933594 l -1.8125 11.933594 z m 0 0" fill="#3d3846"/>
</svg>
